<?xml version="1.0" encoding="UTF-8" standalone="no"?>
<!-- Generator: Adobe Illustrator 15.1.0, SVG Export Plug-In . SVG Version: 6.00 Build 0)  -->

<svg
   xmlns:dc="http://purl.org/dc/elements/1.1/"
   xmlns:cc="http://creativecommons.org/ns#"
   xmlns:rdf="http://www.w3.org/1999/02/22-rdf-syntax-ns#"
   xmlns:svg="http://www.w3.org/2000/svg"
   xmlns="http://www.w3.org/2000/svg"
   xmlns:sodipodi="http://sodipodi.sourceforge.net/DTD/sodipodi-0.dtd"
   xmlns:inkscape="http://www.inkscape.org/namespaces/inkscape"
   version="1.1"
   x="0px"
   y="0px"
   width="392.70401"
   height="113.386"
   viewBox="0 0 392.704 113.386"
   enable-background="new 0 0 841.89 595.28"
   xml:space="preserve"
   id="svg3387"
   inkscape:version="0.48.4 r9939"
   sodipodi:docname="rz_logo_coldewey_com__c2_software_cmyk.svg"><metadata
   id="metadata3483"><rdf:RDF><cc:Work
       rdf:about=""><dc:format>image/svg+xml</dc:format><dc:type
         rdf:resource="http://purl.org/dc/dcmitype/StillImage" /></cc:Work></rdf:RDF></metadata><defs
   id="defs3481" /><sodipodi:namedview
   pagecolor="#ffffff"
   bordercolor="#666666"
   borderopacity="1"
   objecttolerance="10"
   gridtolerance="10"
   guidetolerance="10"
   inkscape:pageopacity="0"
   inkscape:pageshadow="2"
   inkscape:window-width="640"
   inkscape:window-height="480"
   id="namedview3479"
   showgrid="false"
   fit-margin-top="0"
   fit-margin-left="0"
   fit-margin-right="0"
   fit-margin-bottom="0"
   inkscape:zoom="0.39645207"
   inkscape:cx="226.993"
   inkscape:cy="45.552991"
   inkscape:window-x="0"
   inkscape:window-y="0"
   inkscape:window-maximized="0"
   inkscape:current-layer="svg3387" />
<g
   id="Ebene_1"
   transform="translate(-193.952,-229.807)">
</g>
<g
   id="Ebene_2"
   transform="translate(-193.952,-229.807)">
	<circle
   cx="250.644"
   cy="286.5"
   r="25.511999"
   id="circle3391"
   sodipodi:cx="250.644"
   sodipodi:cy="286.5"
   sodipodi:rx="25.511999"
   sodipodi:ry="25.511999"
   style="fill:#e30051"
   d="m 276.156,286.5 c 0,14.08989 -11.42211,25.512 -25.512,25.512 -14.08989,0 -25.512,-11.42211 -25.512,-25.512 0,-14.08989 11.42211,-25.512 25.512,-25.512 14.08989,0 25.512,11.42211 25.512,25.512 z" />
	<path
   d="m 289.034,310.596 c -8.025,12.76 -22.202,21.258 -38.389,21.258 -25.048,0 -45.354,-20.305 -45.354,-45.354 0,-25.048 20.306,-45.353 45.354,-45.353 16.187,0 30.364,8.5 38.389,21.26 h 12.922 c -9.058,-19.258 -28.62,-32.6 -51.312,-32.6 -31.31,0 -56.692,25.383 -56.692,56.693 0,31.311 25.382,56.693 56.692,56.693 22.691,0 42.253,-13.34 51.312,-32.598 h -12.922 z"
   id="path3393"
   inkscape:connector-curvature="0"
   style="fill:#e30051" />
	<g
   id="g3395">
		<path
   d="m 311.895,293.896 c -0.54,3.21 -1.86,5.7 -3.96,7.47 -2.1,1.771 -4.71,2.655 -7.83,2.655 -3.42,0 -6.3,-1.17 -8.64,-3.511 -1.38,-1.379 -2.25,-2.984 -2.61,-4.814 -0.36,-1.8 -0.54,-4.455 -0.54,-7.965 0,-3.51 0.18,-6.165 0.54,-7.965 0.36,-1.83 1.23,-3.435 2.61,-4.815 2.34,-2.34 5.22,-3.51 8.64,-3.51 3.12,0 5.73,0.885 7.83,2.655 2.1,1.77 3.42,4.26 3.96,7.47 h -6.345 c -0.75,-3.03 -2.55,-4.545 -5.4,-4.545 -1.74,0 -3.076,0.556 -4.005,1.665 -0.66,0.69 -1.087,1.598 -1.282,2.723 -0.196,1.125 -0.292,3.233 -0.292,6.322 0,3.09 0.097,5.198 0.292,6.323 0.195,1.125 0.622,2.033 1.282,2.722 0.93,1.11 2.265,1.665 4.005,1.665 2.85,0 4.649,-1.515 5.4,-4.545 h 6.345 z"
   id="path3397"
   inkscape:connector-curvature="0"
   style="fill:#9a9a9d" />
		<path
   d="m 337.77,303.75 h -19.485 v -5.265 l 11.97,-13.905 c 1.109,-1.32 1.665,-2.61 1.665,-3.87 0,-1.2 -0.337,-2.167 -1.013,-2.902 -0.675,-0.735 -1.627,-1.103 -2.857,-1.103 -1.11,0 -2.041,0.323 -2.79,0.967 -0.75,0.646 -1.125,1.688 -1.125,3.127 h -5.85 c 0,-2.85 0.923,-5.122 2.768,-6.817 1.845,-1.694 4.177,-2.542 6.998,-2.542 2.88,0 5.22,0.84 7.02,2.52 1.8,1.681 2.7,3.945 2.7,6.795 0,1.44 -0.255,2.655 -0.765,3.645 -0.51,0.99 -1.395,2.221 -2.655,3.69 l -8.955,10.395 h 12.375 v 5.265 z"
   id="path3399"
   inkscape:connector-curvature="0"
   style="fill:#9a9a9d" />
		<path
   d="m 366.57,294.3 c 0,3.031 -1.118,5.408 -3.353,7.133 -2.235,1.725 -5.078,2.587 -8.527,2.587 -2.55,0 -4.755,-0.322 -6.615,-0.968 -1.86,-0.645 -3.555,-1.732 -5.085,-3.262 l 4.05,-4.05 c 1.8,1.8 4.38,2.7 7.74,2.7 3.78,0 5.67,-1.32 5.67,-3.96 0,-1.17 -0.331,-2.07 -0.99,-2.7 -0.601,-0.54 -1.546,-0.915 -2.835,-1.125 l -3.87,-0.54 c -2.73,-0.39 -4.8,-1.275 -6.21,-2.655 -1.53,-1.53 -2.295,-3.629 -2.295,-6.3 0,-2.91 1.004,-5.257 3.015,-7.042 2.01,-1.785 4.725,-2.678 8.145,-2.678 4.32,0 7.77,1.245 10.35,3.735 l -3.96,3.915 c -1.53,-1.469 -3.72,-2.205 -6.57,-2.205 -1.591,0 -2.813,0.383 -3.667,1.148 -0.855,0.765 -1.283,1.732 -1.283,2.902 0,0.93 0.315,1.695 0.945,2.295 0.72,0.66 1.71,1.08 2.97,1.26 l 3.78,0.54 c 2.7,0.391 4.74,1.215 6.12,2.475 1.65,1.561 2.475,3.826 2.475,6.795 z"
   id="path3401"
   inkscape:connector-curvature="0"
   style="fill:#e30051" />
		<path
   d="m 397.079,283.726 c 0.03,0.84 0.045,2.175 0.045,4.005 0,1.83 -0.016,3.166 -0.045,4.005 -0.03,0.84 -0.135,1.883 -0.315,3.127 -0.18,1.246 -0.502,2.303 -0.967,3.173 -0.465,0.87 -1.088,1.695 -1.868,2.474 -2.34,2.341 -5.22,3.511 -8.64,3.511 -3.451,0 -6.345,-1.17 -8.685,-3.511 -0.781,-0.779 -1.395,-1.597 -1.845,-2.452 -0.45,-0.855 -0.765,-1.927 -0.945,-3.218 -0.18,-1.29 -0.286,-2.324 -0.315,-3.105 -0.03,-0.78 -0.045,-2.115 -0.045,-4.005 0,-1.89 0.015,-3.225 0.045,-4.005 0.029,-0.78 0.135,-1.815 0.315,-3.105 0.18,-1.29 0.495,-2.363 0.945,-3.218 0.45,-0.855 1.064,-1.672 1.845,-2.452 2.34,-2.34 5.234,-3.51 8.685,-3.51 3.42,0 6.3,1.17 8.64,3.51 0.78,0.78 1.402,1.605 1.868,2.475 0.465,0.871 0.788,1.928 0.967,3.173 0.18,1.245 0.285,2.288 0.315,3.128 z m -6.525,10.237 c 0.209,-1.154 0.315,-3.232 0.315,-6.232 0,-3 -0.105,-5.077 -0.315,-6.232 -0.21,-1.155 -0.63,-2.077 -1.26,-2.768 -0.99,-1.14 -2.325,-1.71 -4.005,-1.71 -1.71,0 -3.06,0.57 -4.05,1.71 -0.63,0.69 -1.042,1.605 -1.237,2.745 -0.196,1.14 -0.292,3.225 -0.292,6.255 0,3.03 0.097,5.115 0.292,6.255 0.195,1.141 0.607,2.055 1.237,2.745 0.99,1.141 2.34,1.71 4.05,1.71 1.68,0 3.015,-0.569 4.005,-1.71 0.63,-0.69 1.05,-1.613 1.26,-2.768 z"
   id="path3403"
   inkscape:connector-curvature="0"
   style="fill:#e30051" />
		<path
   d="m 426.689,277.291 h -14.85 v 7.875 h 12.645 v 5.58 h -12.645 v 13.004 h -6.255 v -32.04 h 21.105 v 5.581 z"
   id="path3405"
   inkscape:connector-curvature="0"
   style="fill:#e30051" />
		<path
   d="m 454.814,277.291 h -8.37 v 26.459 h -6.255 v -26.459 h -8.37 v -5.58 h 22.995 v 5.58 z"
   id="path3407"
   inkscape:connector-curvature="0"
   style="fill:#e30051" />
		<path
   d="m 497.879,271.71 -8.595,32.04 h -5.22 l -5.896,-19.439 -5.895,19.439 h -5.22 l -8.551,-32.04 h 6.525 l 4.95,20.205 5.85,-20.205 h 4.681 l 5.85,20.205 4.995,-20.205 h 6.526 z"
   id="path3409"
   inkscape:connector-curvature="0"
   style="fill:#e30051" />
		<path
   d="m 527.984,303.75 h -6.525 l -1.89,-5.669 h -11.386 l -1.935,5.669 h -6.525 l 11.655,-32.04 h 4.905 l 11.701,32.04 z m -10.08,-10.935 -3.915,-11.655 -4.05,11.655 h 7.965 z"
   id="path3411"
   inkscape:connector-curvature="0"
   style="fill:#e30051" />
		<path
   d="m 558.268,303.75 h -7.245 l -6.255,-12.779 h -4.5 v 12.779 h -6.255 v -32.04 h 12.555 c 3.18,0 5.707,0.945 7.582,2.835 1.875,1.89 2.813,4.215 2.813,6.975 0,2.13 -0.555,3.915 -1.665,5.355 -1.109,1.44 -2.505,2.46 -4.185,3.06 l 7.155,13.815 z m -8.821,-19.169 c 0.84,-0.78 1.26,-1.8 1.26,-3.06 0,-1.26 -0.42,-2.28 -1.26,-3.06 -0.84,-0.78 -1.935,-1.17 -3.285,-1.17 h -5.895 v 8.46 h 5.895 c 1.351,-10e-4 2.445,-0.39 3.285,-1.17 z"
   id="path3413"
   inkscape:connector-curvature="0"
   style="fill:#e30051" />
		<path
   d="m 586.617,303.75 h -21.104 v -32.04 h 21.104 v 5.58 h -14.85 v 7.515 h 12.645 v 5.58 h -12.645 v 7.785 h 14.85 v 5.58 z"
   id="path3415"
   inkscape:connector-curvature="0"
   style="fill:#e30051" />
	</g>
	<g
   id="g3417">
		<path
   d="m 333.579,315.996 -2.648,10.324 h -1.033 l -2.299,-8.266 -2.299,8.266 h -1.033 l -2.648,-10.324 h 1.178 l 2.022,8.322 2.284,-8.322 h 0.989 l 2.284,8.322 2.022,-8.322 h 1.181 z"
   id="path3419"
   inkscape:connector-curvature="0"
   style="fill:#9a9a9d" />
		<path
   d="m 342.526,326.32 h -1.178 l -0.83,-2.336 h -4.525 l -0.829,2.336 h -1.178 l 3.812,-10.324 h 0.931 l 3.797,10.324 z m -2.327,-3.291 -1.921,-5.453 -1.949,5.453 h 3.87 z"
   id="path3421"
   inkscape:connector-curvature="0"
   style="fill:#9a9a9d" />
		<path
   d="m 351.445,326.32 h -1.295 l -2.357,-4.582 h -2.488 v 4.582 h -1.106 v -10.324 h 3.972 c 0.912,0 1.651,0.258 2.219,0.775 0.568,0.517 0.851,1.217 0.851,2.096 0,0.734 -0.204,1.344 -0.611,1.826 -0.407,0.484 -0.956,0.799 -1.644,0.943 l 2.459,4.684 z m -1.31,-7.439 c 0,-0.609 -0.189,-1.078 -0.567,-1.406 -0.378,-0.328 -0.878,-0.492 -1.499,-0.492 h -2.764 v 3.783 h 2.764 c 0.63,0 1.132,-0.16 1.506,-0.484 0.373,-0.325 0.56,-0.792 0.56,-1.401 z"
   id="path3423"
   inkscape:connector-curvature="0"
   style="fill:#9a9a9d" />
		<path
   d="m 360.174,326.32 h -6.431 v -10.324 h 6.431 v 0.986 h -5.325 v 3.639 h 4.539 v 0.986 h -4.539 v 3.727 h 5.325 v 0.986 z"
   id="path3425"
   inkscape:connector-curvature="0"
   style="fill:#9a9a9d" />
		<path
   d="m 370.125,326.32 h -1.047 l -5.5,-8.279 v 8.279 h -1.106 v -10.324 h 1.047 l 5.5,8.25 v -8.25 h 1.106 v 10.324 z"
   id="path3427"
   inkscape:connector-curvature="0"
   style="fill:#9a9a9d" />
		<path
   d="m 383.816,315.996 -2.648,10.324 h -1.033 l -2.299,-8.266 -2.299,8.266 h -1.033 l -2.648,-10.324 h 1.178 l 2.022,8.322 2.284,-8.322 h 0.989 l 2.284,8.322 2.022,-8.322 h 1.181 z"
   id="path3429"
   inkscape:connector-curvature="0"
   style="fill:#9a9a9d" />
		<path
   d="m 386.653,326.32 h -1.106 v -10.324 h 1.106 v 10.324 z"
   id="path3431"
   inkscape:connector-curvature="0"
   style="fill:#9a9a9d" />
		<path
   d="m 396.896,326.32 h -1.295 l -2.357,-4.582 h -2.488 v 4.582 h -1.106 v -10.324 h 3.972 c 0.912,0 1.651,0.258 2.219,0.775 0.568,0.517 0.851,1.217 0.851,2.096 0,0.734 -0.204,1.344 -0.611,1.826 -0.407,0.484 -0.956,0.799 -1.644,0.943 l 2.459,4.684 z m -1.31,-7.439 c 0,-0.609 -0.189,-1.078 -0.567,-1.406 -0.378,-0.328 -0.878,-0.492 -1.499,-0.492 h -2.764 v 3.783 h 2.764 c 0.63,0 1.132,-0.16 1.506,-0.484 0.373,-0.325 0.56,-0.792 0.56,-1.401 z"
   id="path3433"
   inkscape:connector-curvature="0"
   style="fill:#9a9a9d" />
		<path
   d="m 405.232,316.982 h -2.998 v 9.338 h -1.105 v -9.338 h -2.997 v -0.986 h 7.1 v 0.986 z"
   id="path3435"
   inkscape:connector-curvature="0"
   style="fill:#9a9a9d" />
		<path
   d="m 413.422,323.479 c 0,0.898 -0.325,1.611 -0.975,2.139 -0.65,0.528 -1.518,0.789 -2.604,0.789 -1.455,0 -2.639,-0.453 -3.55,-1.363 l 0.757,-0.754 c 0.756,0.754 1.697,1.131 2.822,1.131 0.757,0 1.353,-0.168 1.79,-0.506 0.437,-0.34 0.655,-0.809 0.655,-1.408 0,-0.568 -0.165,-1 -0.495,-1.289 -0.262,-0.232 -0.713,-0.396 -1.353,-0.494 l -1.208,-0.188 c -1.794,-0.281 -2.692,-1.184 -2.692,-2.711 0,-0.881 0.298,-1.586 0.895,-2.117 0.597,-0.531 1.404,-0.799 2.422,-0.799 1.212,0 2.241,0.377 3.084,1.131 l -0.713,0.711 c -0.65,-0.59 -1.455,-0.885 -2.415,-0.885 -0.679,0 -1.213,0.174 -1.601,0.523 -0.388,0.348 -0.582,0.811 -0.582,1.391 0,0.523 0.16,0.922 0.48,1.197 0.32,0.275 0.781,0.461 1.382,0.559 l 1.135,0.174 c 0.844,0.125 1.474,0.367 1.892,0.725 0.584,0.491 0.874,1.172 0.874,2.044 z"
   id="path3437"
   inkscape:connector-curvature="0"
   style="fill:#9a9a9d" />
		<path
   d="m 422.545,323.332 c -0.165,0.957 -0.573,1.709 -1.222,2.256 -0.65,0.547 -1.44,0.818 -2.372,0.818 -1.048,0 -1.93,-0.357 -2.648,-1.072 -0.446,-0.445 -0.732,-0.986 -0.858,-1.625 -0.078,-0.434 -0.116,-1.285 -0.116,-2.551 0,-1.268 0.039,-2.117 0.116,-2.553 0.126,-0.637 0.412,-1.18 0.858,-1.623 0.718,-0.717 1.6,-1.074 2.648,-1.074 0.94,0 1.731,0.271 2.372,0.813 0.641,0.542 1.047,1.295 1.222,2.262 h -1.135 c -0.136,-0.637 -0.419,-1.145 -0.851,-1.521 -0.432,-0.376 -0.967,-0.566 -1.607,-0.566 -0.718,0 -1.314,0.242 -1.79,0.725 -0.311,0.32 -0.514,0.721 -0.611,1.205 -0.078,0.424 -0.116,1.203 -0.116,2.334 0,1.131 0.039,1.908 0.116,2.334 0.097,0.484 0.301,0.885 0.611,1.203 0.475,0.484 1.072,0.725 1.79,0.725 0.64,0 1.181,-0.188 1.622,-0.564 0.441,-0.376 0.73,-0.885 0.866,-1.523 h 1.105 z"
   id="path3439"
   inkscape:connector-curvature="0"
   style="fill:#9a9a9d" />
		<path
   d="m 432.117,326.32 h -1.105 v -4.713 h -4.917 v 4.713 h -1.106 v -10.324 h 1.106 v 4.625 h 4.917 v -4.625 h 1.105 v 10.324 z"
   id="path3441"
   inkscape:connector-curvature="0"
   style="fill:#9a9a9d" />
		<path
   d="m 442.331,326.32 h -1.179 l -0.829,-2.336 h -4.524 l -0.83,2.336 h -1.178 l 3.812,-10.324 h 0.931 l 3.797,10.324 z m -2.327,-3.291 -1.922,-5.453 -1.949,5.453 h 3.871 z"
   id="path3443"
   inkscape:connector-curvature="0"
   style="fill:#9a9a9d" />
		<path
   d="m 450.435,316.982 h -5.325 v 3.799 h 4.539 v 0.986 h -4.539 v 4.553 h -1.105 v -10.324 h 6.431 v 0.986 z"
   id="path3445"
   inkscape:connector-curvature="0"
   style="fill:#9a9a9d" />
		<path
   d="m 458.48,316.982 h -2.998 v 9.338 h -1.105 v -9.338 h -2.997 v -0.986 h 7.101 v 0.986 z"
   id="path3447"
   inkscape:connector-curvature="0"
   style="fill:#9a9a9d" />
		<path
   d="m 465.435,327.393 h -1.048 v -12.471 h 1.048 v 12.471 z"
   id="path3449"
   inkscape:connector-curvature="0"
   style="fill:#9a9a9d" />
		<path
   d="m 478.165,326.32 h -6.431 v -1.045 l 5.18,-8.293 h -4.976 v -0.986 h 6.227 v 0.928 l -5.223,8.41 h 5.223 v 0.986 z"
   id="path3451"
   inkscape:connector-curvature="0"
   style="fill:#9a9a9d" />
		<path
   d="m 486.924,326.32 h -6.431 v -10.324 h 6.431 v 0.986 h -5.325 v 3.639 h 4.539 v 0.986 h -4.539 v 3.727 h 5.325 v 0.986 z"
   id="path3453"
   inkscape:connector-curvature="0"
   style="fill:#9a9a9d" />
		<path
   d="m 490.328,326.32 h -1.105 v -10.324 h 1.105 v 10.324 z"
   id="path3455"
   inkscape:connector-curvature="0"
   style="fill:#9a9a9d" />
		<path
   d="m 499.362,316.982 h -2.997 v 9.338 h -1.105 v -9.338 h -2.997 v -0.986 h 7.1 v 0.986 z"
   id="path3457"
   inkscape:connector-curvature="0"
   style="fill:#9a9a9d" />
		<path
   d="m 511.991,315.996 -2.648,10.324 h -1.033 l -2.298,-8.266 -2.299,8.266 h -1.033 l -2.648,-10.324 h 1.179 l 2.022,8.322 2.284,-8.322 h 0.989 l 2.284,8.322 2.022,-8.322 h 1.179 z"
   id="path3459"
   inkscape:connector-curvature="0"
   style="fill:#9a9a9d" />
		<path
   d="m 514.828,326.32 h -1.105 v -10.324 h 1.105 v 10.324 z"
   id="path3461"
   inkscape:connector-curvature="0"
   style="fill:#9a9a9d" />
		<path
   d="m 525.07,326.32 h -1.295 l -2.357,-4.582 h -2.487 v 4.582 h -1.105 v -10.324 h 3.972 c 0.911,0 1.651,0.258 2.219,0.775 0.568,0.517 0.851,1.217 0.851,2.096 0,0.734 -0.203,1.344 -0.61,1.826 -0.408,0.484 -0.956,0.799 -1.645,0.943 l 2.457,4.684 z m -1.309,-7.439 c 0,-0.609 -0.189,-1.078 -0.567,-1.406 -0.378,-0.328 -0.878,-0.492 -1.499,-0.492 h -2.764 v 3.783 h 2.764 c 0.631,0 1.133,-0.16 1.506,-0.484 0.373,-0.325 0.56,-0.792 0.56,-1.401 z"
   id="path3463"
   inkscape:connector-curvature="0"
   style="fill:#9a9a9d" />
		<path
   d="m 533.406,316.982 h -2.997 v 9.338 h -1.105 v -9.338 h -2.997 v -0.986 h 7.1 v 0.986 z"
   id="path3465"
   inkscape:connector-curvature="0"
   style="fill:#9a9a9d" />
		<path
   d="m 541.598,323.479 c 0,0.898 -0.325,1.611 -0.975,2.139 -0.65,0.527 -1.519,0.789 -2.604,0.789 -1.455,0 -2.639,-0.453 -3.55,-1.363 l 0.756,-0.754 c 0.757,0.754 1.697,1.131 2.823,1.131 0.756,0 1.353,-0.168 1.789,-0.506 0.437,-0.34 0.654,-0.809 0.654,-1.408 0,-0.568 -0.165,-1 -0.494,-1.289 -0.262,-0.232 -0.713,-0.396 -1.354,-0.494 l -1.207,-0.188 c -1.795,-0.281 -2.691,-1.184 -2.691,-2.711 0,-0.881 0.298,-1.586 0.895,-2.117 0.597,-0.531 1.404,-0.799 2.422,-0.799 1.213,0 2.241,0.377 3.085,1.131 l -0.713,0.711 c -0.65,-0.59 -1.455,-0.885 -2.415,-0.885 -0.68,0 -1.213,0.174 -1.601,0.523 -0.388,0.348 -0.582,0.811 -0.582,1.391 0,0.523 0.16,0.922 0.48,1.197 0.319,0.275 0.78,0.461 1.382,0.559 l 1.135,0.174 c 0.844,0.125 1.475,0.367 1.892,0.725 0.582,0.491 0.873,1.172 0.873,2.044 z"
   id="path3467"
   inkscape:connector-curvature="0"
   style="fill:#9a9a9d" />
		<path
   d="m 550.72,323.332 c -0.165,0.957 -0.572,1.709 -1.223,2.256 -0.649,0.547 -1.44,0.818 -2.371,0.818 -1.048,0 -1.931,-0.357 -2.648,-1.072 -0.446,-0.445 -0.732,-0.986 -0.858,-1.625 -0.077,-0.434 -0.116,-1.285 -0.116,-2.551 0,-1.268 0.039,-2.117 0.116,-2.553 0.126,-0.637 0.412,-1.18 0.858,-1.623 0.718,-0.717 1.601,-1.074 2.648,-1.074 0.94,0 1.731,0.271 2.371,0.813 0.641,0.541 1.048,1.295 1.223,2.262 h -1.135 c -0.137,-0.637 -0.42,-1.145 -0.852,-1.521 -0.432,-0.376 -0.968,-0.566 -1.607,-0.566 -0.718,0 -1.314,0.242 -1.79,0.725 -0.311,0.32 -0.514,0.721 -0.61,1.205 -0.078,0.424 -0.116,1.203 -0.116,2.334 0,1.131 0.038,1.908 0.116,2.334 0.097,0.484 0.3,0.885 0.61,1.203 0.476,0.484 1.072,0.725 1.79,0.725 0.64,0 1.181,-0.188 1.622,-0.564 0.441,-0.376 0.729,-0.885 0.865,-1.523 h 1.107 z"
   id="path3469"
   inkscape:connector-curvature="0"
   style="fill:#9a9a9d" />
		<path
   d="m 560.293,326.32 h -1.106 v -4.713 h -4.917 v 4.713 h -1.105 v -10.324 h 1.105 v 4.625 h 4.917 v -4.625 h 1.106 v 10.324 z"
   id="path3471"
   inkscape:connector-curvature="0"
   style="fill:#9a9a9d" />
		<path
   d="m 570.506,326.32 h -1.179 l -0.829,-2.336 h -4.524 l -0.829,2.336 h -1.179 l 3.812,-10.324 h 0.932 l 3.796,10.324 z m -2.328,-3.291 -1.92,-5.453 -1.95,5.453 h 3.87 z"
   id="path3473"
   inkscape:connector-curvature="0"
   style="fill:#9a9a9d" />
		<path
   d="m 578.61,316.982 h -5.325 v 3.799 h 4.539 v 0.986 h -4.539 v 4.553 h -1.105 v -10.324 h 6.431 v 0.986 z"
   id="path3475"
   inkscape:connector-curvature="0"
   style="fill:#9a9a9d" />
		<path
   d="m 586.655,316.982 h -2.997 v 9.338 h -1.105 v -9.338 h -2.997 v -0.986 h 7.1 v 0.986 z"
   id="path3477"
   inkscape:connector-curvature="0"
   style="fill:#9a9a9d" />
	</g>
</g>
</svg>